<svg style="object-fit:cover" id="my-svg" version="1" baseProfile="full" width="100%" height="100%" viewBox="0 0 1536 730" xmlns="http://www.w3.org/2000/svg"><rect width="1536" height="730" fill="#000"></rect><defs><linearGradient id="linear-gradient" x1="0" x2="0" y1="1" y2="0"><stop offset="0%" stop-color="#c2a12980"></stop><stop offset="100%" stop-color="#75771880"></stop></linearGradient></defs><path transform="scale(1, -1)" d="M 0,730 V 0,146 C 4.40263704846376,151.56660387903935 8.80527409692752,157.13320775807867 14,150 C 19.19472590307248,142.86679224192133 25.181540660753676,123.03377284672466 30,121 C 34.818459339246324,118.96622715327534 38.46856326005779,134.73170085502272 43,128 C 47.53143673994221,121.26829914497729 52.94420629901515,92.03942373318455 59,91 C 65.05579370098485,89.96057626681545 71.75461154388162,117.11060421223914 77,136 C 82.24538845611838,154.88939578776086 86.03734752545833,165.51815941785893 91,178 C 95.96265247454167,190.48184058214107 102.09599835428509,204.81675811632508 108,197 C 113.90400164571491,189.18324188367492 119.57865905740132,159.2148081168408 124,134 C 128.42134094259868,108.7851918831592 131.58936541610964,88.32400941631167 137,104 C 142.41063458389036,119.67599058368833 150.06387927816016,171.48915421791256 156,196 C 161.93612072183984,220.51084578208744 166.15511747124967,217.71937371203808 171,189 C 175.84488252875033,160.28062628796192 181.3156508368412,105.63335093393513 186,102 C 190.6843491631588,98.36664906606487 194.58227918138567,145.74722255222133 200,161 C 205.41772081861433,176.25277744777867 212.35523243761617,159.37775885717951 217,156 C 221.64476756238383,152.62224114282049 223.9967910681495,162.74174201906072 228,152 C 232.0032089318505,141.25825798093928 237.65760328978592,109.65527306657755 244,116 C 250.34239671021408,122.34472693342245 257.37279577270664,166.63716571462908 262,171 C 266.62720422729336,175.36283428537092 268.8512136193875,139.79606407490616 274,130 C 279.1487863806125,120.20393592509386 287.2223497497432,136.17857798574627 292,146 C 296.7776502502568,155.82142201425373 298.25938738163967,159.48962398210875 304,163 C 309.74061261836033,166.51037601789125 319.7401007236982,169.86292608581886 325,162 C 330.2598992763018,154.13707391418114 330.7802097235676,135.0586716746158 335,129 C 339.2197902764324,122.9413283253842 347.13906038203135,129.9023872157179 354,140 C 360.86093961796865,150.0976127842821 366.66354874830694,163.3317794625126 371,166 C 375.33645125169306,168.6682205374874 378.2067446247408,160.7704949342317 383,142 C 387.7932553752592,123.22950506576832 394.50947275272995,93.58624080056066 400,97 C 405.49052724727005,100.41375919943934 409.7553643643394,136.88454186352564 415,156 C 420.2446356356606,175.11545813647436 426.4690697899122,176.87559174533672 432,180 C 437.5309302100878,183.12440825466328 442.36835647601185,187.6130911551275 447,178 C 451.63164352398815,168.3869088448725 456.0575043060405,144.67204363415325 461,128 C 465.9424956939595,111.32795636584675 471.40162629982615,101.69873430825935 477,105 C 482.59837370017385,108.30126569174065 488.3359904946546,124.53301913280936 494,142 C 499.6640095053454,159.46698086719064 505.25441172155536,178.1691891605033 509,185 C 512.7455882784446,191.8308108394967 514.646362619124,186.79022422517747 520,190 C 525.353637380876,193.20977577482253 534.1601378019486,204.6699139387869 540,197 C 545.8398621980514,189.3300860612131 548.7130861730816,162.53012001967502 553,165 C 557.2869138269184,167.46987998032498 562.987517505725,199.2096059825131 568,195 C 573.012482494275,190.7903940174869 577.3368438040183,150.63145605027256 583,145 C 588.6631561959817,139.36854394972744 595.6651072782017,168.26456981639657 600,167 C 604.3348927217983,165.73543018360343 606.0027270831748,134.3102646841411 611,139 C 615.9972729168252,143.6897353158589 624.3239843890989,184.49437144703901 630,189 C 635.6760156109011,193.50562855296099 638.7013353604292,161.71224952770285 644,146 C 649.2986646395708,130.28775047229715 656.8706741691843,130.6566304421495 662,132 C 667.1293258308157,133.3433695578505 669.8159679628333,135.66122870369904 674,129 C 678.1840320371667,122.33877129630096 683.8654539794819,106.6984547430543 689,101 C 694.1345460205181,95.3015452569457 698.7222161192391,99.54495232408377 704,113 C 709.2777838807609,126.45504767591623 715.2456815435617,149.12173596061066 721,144 C 726.7543184564383,138.87826403938934 732.295057706514,105.96810383347363 737,117 C 741.704942293486,128.03189616652637 745.5740876303827,183.00584870549477 751,193 C 756.4259123696173,202.99415129450523 763.4085917719555,168.00850134454737 769,156 C 774.5914082280445,143.99149865545263 778.7915452817957,154.96014591631572 784,172 C 789.2084547182043,189.03985408368428 795.4252271008614,212.1509149901897 800,194 C 804.5747728991386,175.8490850098103 807.5075463147584,116.43619412292549 813,91 C 818.4924536852416,65.56380587707451 826.5445876401044,74.1043085181083 832,101 C 837.4554123598956,127.8956914818917 840.3141031248235,173.14657180464133 845,181 C 849.6858968751765,188.85342819535867 856.1989998606011,159.30940426332631 861,132 C 865.8010001393989,104.6905957366737 868.8898974327711,79.61581114205339 873,104 C 877.1101025672289,128.3841888579466 882.241410408314,202.22735116846013 888,198 C 893.758589591686,193.77264883153987 900.1444609339729,111.4747841841062 906,109 C 911.8555390660271,106.5252158158938 917.1807458557937,183.87351209511502 922,200 C 926.8192541442063,216.12648790488498 931.1325556428517,171.03116743543367 936,168 C 940.8674443571483,164.96883256456633 946.2890315727991,204.00181816315026 951,190 C 955.7109684272009,175.99818183684974 959.7113180659514,108.9615599119653 965,98 C 970.2886819340486,87.0384400880347 976.8656961633952,132.1519421889885 983,150 C 989.1343038366048,167.8480578110115 994.8258972804681,158.4306713320807 1000,147 C 1005.1741027195319,135.5693286679193 1009.8307147147325,122.1253724826887 1015,131 C 1020.1692852852675,139.8746275173113 1025.8512438606022,171.06783873716455 1030,167 C 1034.1487561393978,162.93216126283545 1036.764309842859,123.60327256865308 1042,113 C 1047.235690157141,102.39672743134692 1055.0915167679618,120.51907098822312 1061,134 C 1066.9084832320382,147.48092901177688 1070.8696230852936,156.32044347845437 1076,162 C 1081.1303769147064,167.67955652154563 1087.4299908908636,170.1991550979593 1092,154 C 1096.5700091091364,137.8008449020407 1099.4104133512524,102.88293612970841 1104,107 C 1108.5895866487476,111.11706387029159 1114.928355704127,154.269100383207 1121,170 C 1127.071644295873,185.730899616793 1132.8761638322396,174.04066233746363 1138,149 C 1143.1238361677604,123.95933766253637 1147.5669889669148,85.5682502669385 1153,96 C 1158.4330110330852,106.4317497330615 1164.8558803001013,165.68633659478235 1169,184 C 1173.1441196998987,202.31366340521765 1175.009489832681,179.68640335393206 1180,167 C 1184.990510167319,154.31359664606794 1193.1061603691742,151.56804998948942 1199,147 C 1204.8938396308258,142.43195001051058 1208.565868690622,136.0413966881103 1213,121 C 1217.434131309378,105.9586033118897 1222.6303648683383,82.26636325806939 1227,98 C 1231.3696351316617,113.73363674193061 1234.9126718360246,168.8931502796121 1241,176 C 1247.0873281639754,183.1068497203879 1255.7189477875625,142.1610356234824 1262,133 C 1268.2810522124375,123.8389643765176 1272.2115370137255,146.4627072264583 1276,166 C 1279.7884629862745,185.5372927735417 1283.4349041575351,201.9881354706844 1289,187 C 1294.5650958424649,172.0118645293156 1302.0488463561342,125.58475089080417 1307,116 C 1311.9511536438658,106.41524910919583 1314.3697104179273,133.6728609660989 1319,139 C 1323.6302895820727,144.3271390339011 1330.4723119721561,127.7238052448001 1336,137 C 1341.5276880278439,146.2761947551999 1345.7410416934479,181.43191805470065 1351,177 C 1356.2589583065521,172.56808194529935 1362.5635212540521,128.5485225363973 1368,128 C 1373.4364787459479,127.45147746360273 1378.0048732903435,170.37399179971024 1383,180 C 1387.9951267096565,189.62600820028976 1393.4169855845728,165.9555102647618 1399,160 C 1404.5830144154272,154.0444897352382 1410.3271843713642,165.80396714124254 1415,167 C 1419.6728156286358,168.19603285875746 1423.2742769299693,158.82862117026795 1428,155 C 1432.7257230700307,151.17137882973205 1438.5757079087577,152.88154817768552 1444,145 C 1449.4242920912423,137.11845182231448 1454.4228914349997,119.64518611898984 1459,130 C 1463.5771085650003,140.35481388101016 1467.7327263512434,178.53770734635506 1473,176 C 1478.2672736487566,173.46229265364494 1484.646203160026,130.20398449558996 1491,117 C 1497.353796839974,103.79601550441005 1503.6824610086526,120.6463546712852 1508,138 C 1512.3175389913474,155.3536453287148 1514.623952805363,173.21059681926937 1519,182 C 1523.376047194637,190.78940318073063 1529.8217277698961,190.51125805163733 1533,183 C 1536.1782722301039,175.48874194836267 1536.089136115052,160.74437097418132 1536,146 C 1536,146 1536,730 1536,730 Z" stroke="none" stroke-width="0" fill="url(#linear-gradient)" class="transition-all duration-300 ease-in-out delay-150" style="transform-origin: center center;"></path><defs><linearGradient id="linear-gradient" x1="0" x2="0" y1="1" y2="0"><stop offset="0%" stop-color="#c2a12990"></stop><stop offset="100%" stop-color="#75771890"></stop></linearGradient></defs><path transform="scale(1, -1)" d="M 0,730 V 0,219 C 4.565914109260401,248.81927727770247 9.131828218520802,278.63855455540494 15,265 C 20.868171781479198,251.36144544459506 28.038601235177197,194.26505905608272 33,195 C 37.9613987648228,195.73494094391728 40.71376684077044,254.30120922026413 45,260 C 49.28623315922956,265.6987907797359 55.10633140174106,218.53010406286086 60,201 C 64.89366859825894,183.46989593713914 68.86090755226533,195.57837452829244 74,199 C 79.13909244773467,202.42162547170756 85.45003838919764,197.15639782396937 91,203 C 96.54996161080236,208.84360217603063 101.33893889094408,225.79603417583013 106,239 C 110.66106110905592,252.20396582416987 115.19420604702611,261.6594654727103 121,244 C 126.80579395297389,226.34053452728975 133.88423692095148,181.56610393332878 139,164 C 144.11576307904852,146.43389606667122 147.26884626916794,156.0761187939746 152,182 C 156.73115373083206,207.9238812060254 163.0403780023768,250.1294208907728 168,257 C 172.9596219976232,263.8705791092272 176.56964172132498,235.4061976429344 182,233 C 187.43035827867502,230.5938023570656 194.68105511232332,254.24578853748977 201,268 C 207.31894488767668,281.7542114625102 212.7061378293818,285.61064820710646 217,272 C 221.2938621706182,258.38935179289354 224.4943935701494,227.31161863408434 229,223 C 233.5056064298506,218.68838136591566 239.31628789002067,241.14287725655612 245,256 C 250.68371210997933,270.8571227434439 256.2404548697678,278.11687233969104 262,265 C 267.7595451302322,251.88312766030896 273.7218926309081,218.38963338467954 278,207 C 282.2781073690919,195.61036661532046 284.8719746065999,206.32459412159076 289,200 C 293.1280253934001,193.67540587840924 298.7902089426921,170.31199012895743 305,181 C 311.2097910573079,191.68800987104257 317.96718962263174,236.4274453625794 323,238 C 328.03281037736826,239.5725546374206 331.3410325667808,197.97822842072486 337,194 C 342.6589674332192,190.02177157927514 350.6686801102448,223.6596409545212 356,247 C 361.3313198897552,270.3403590454788 363.98424699224006,283.3832077611903 368,265 C 372.01575300775994,246.61679223880967 377.3943319207949,196.80752800071738 382,184 C 386.6056680792051,171.19247199928262 390.4384253245803,195.38668023594002 396,211 C 401.5615746754197,226.61331976405998 408.85196678088386,233.64575105552265 415,234 C 421.14803321911614,234.35424894447735 426.15370755188417,228.0303155419693 431,220 C 435.84629244811583,211.9696844580307 440.5332030115791,202.23298677660014 446,220 C 451.4667969884209,237.76701322339986 457.71348040179936,283.0377373516301 463,264 C 468.28651959820064,244.96226264836994 472.61287538122303,161.61606381687963 477,164 C 481.38712461877697,166.38393618312037 485.8350180733082,254.4980073808514 491,262 C 496.1649819266918,269.5019926191486 502.04705232554403,196.39190665971483 507,186 C 511.95294767445597,175.60809334028517 515.9767726245155,227.93436598028927 520,241 C 524.0232273754845,254.06563401971073 528.0458571763938,227.87062941912814 534,219 C 539.9541428236062,210.12937058087186 547.8397986699093,218.5831163431982 553,218 C 558.1602013300907,217.4168836568018 560.594948143969,207.79690520807887 566,205 C 571.405051856031,202.20309479192113 579.7804087542149,206.2292628244862 585,209 C 590.2195912457851,211.7707371755138 592.2834168391715,213.28604349397628 597,217 C 601.7165831608285,220.71395650602372 609.0859238890991,226.6265631996086 615,241 C 620.9140761109009,255.3734368003914 625.3728876044319,278.2077037075894 630,266 C 634.6271123955681,253.7922962924106 639.422525693173,206.54262197003376 644,191 C 648.577474306827,175.45737802996624 652.9370096228757,191.62180841227558 658,199 C 663.0629903771243,206.37819158772442 668.8294358153239,204.9701443808639 675,212 C 681.1705641846761,219.0298556191361 687.7452471158288,234.49761406426884 693,230 C 698.2547528841712,225.50238593573116 702.1895757213607,201.0393993620605 707,192 C 711.8104242786393,182.9606006379395 717.4964499987279,189.34478848748915 723,186 C 728.5035500012721,182.65521151251085 733.8246242837271,169.5814466879828 738,178 C 742.1753757162729,186.4185533120172 745.2050528663635,216.32942476057949 750,230 C 754.7949471336365,243.67057523942051 761.3551642508189,241.10085426969906 768,243 C 774.6448357491811,244.89914573030094 781.3742901303606,251.26715816062426 786,264 C 790.6257098696394,276.73284183937574 793.1476752277388,295.83051308780387 797,271 C 800.8523247722612,246.16948691219616 806.0350089586847,177.41078948816028 812,174 C 817.9649910413153,170.58921051183972 824.7122889375229,232.52632895955503 831,246 C 837.2877110624771,259.47367104044497 843.1158352912237,224.48389467361955 847,209 C 850.8841647087763,193.51610532638045 852.8243698975818,197.5380923459667 857,189 C 861.1756301024182,180.4619076540333 867.5866851184487,159.3637359425136 873,178 C 878.4133148815513,196.6362640574864 882.8288896286232,255.0069638839789 888,251 C 893.1711103713768,246.9930361160211 899.0977563670587,180.60840852157065 904,167 C 908.9022436329413,153.39159147842935 912.7800849031422,192.5594020297385 919,193 C 925.2199150968578,193.4405979702615 933.7819040203727,155.1539833594753 939,168 C 944.2180959796273,180.8460166405247 946.0922990153665,244.82466453236032 951,270 C 955.9077009846335,295.1753354676397 963.8488999181612,281.5473585110834 969,259 C 974.1511000818388,236.45264148891658 976.5121013119889,204.9859014233062 981,199 C 985.4878986880111,193.0140985766938 992.1026948338833,212.5090357956918 997,231 C 1001.8973051661167,249.4909642043082 1005.0771193524777,266.97795539392644 1011,269 C 1016.9228806475223,271.02204460607356 1025.5888277562062,257.57914262860226 1031,239 C 1036.4111722437938,220.42085737139774 1038.5675696226974,196.70547409166448 1043,205 C 1047.4324303773026,213.29452590833552 1054.1408937530043,253.5989610047398 1060,270 C 1065.8591062469957,286.4010389952602 1070.8688553652858,278.89868188937635 1075,273 C 1079.1311446347142,267.10131811062365 1082.3836847858524,262.8063114377549 1088,249 C 1093.6163152141476,235.1936885622451 1101.5964054913043,211.8760723596039 1108,207 C 1114.4035945086957,202.1239276403961 1119.23069324893,215.68939912382947 1123,216 C 1126.76930675107,216.31060087617053 1129.4808215129756,203.36633114507825 1135,184 C 1140.5191784870244,164.63366885492175 1148.8460206991676,138.8452762958575 1154,165 C 1159.1539793008324,191.1547237041425 1161.1350956903534,269.25256367149166 1165,268 C 1168.8649043096466,266.74743632850834 1174.6135965394185,186.14446901817578 1180,183 C 1185.3864034605815,179.85553098182422 1190.4105181519715,254.1695602558052 1196,256 C 1201.5894818480285,257.8304397441948 1207.7443308526954,187.17728995860355 1213,177 C 1218.2556691473046,166.82271004139645 1222.6121584372468,217.12127990978055 1228,233 C 1233.3878415627532,248.87872009021945 1239.8070353983173,230.3375904022743 1245,230 C 1250.1929646016827,229.6624095977257 1254.159699969484,247.52835848112224 1259,241 C 1263.840300030516,234.47164151887776 1269.5541647237465,203.5489756732367 1274,189 C 1278.4458352762535,174.4510243267633 1281.623641135529,176.2757388259311 1287,180 C 1292.376358864471,183.7242611740689 1299.951270734137,189.34806902303882 1305,189 C 1310.048729265863,188.65193097696118 1312.571275927922,182.33198508191356 1318,201 C 1323.428724072078,219.66801491808644 1331.7636255541747,263.3239906493069 1338,270 C 1344.2363744458253,276.6760093506931 1348.3742218553791,246.37205232085884 1353,243 C 1357.6257781446209,239.62794767914116 1362.7394870243086,263.18780006725774 1367,259 C 1371.2605129756914,254.8121999327423 1374.6678300473861,222.8767474101102 1380,215 C 1385.3321699526139,207.1232525898898 1392.5891927861462,223.3052102923014 1398,224 C 1403.4108072138538,224.6947897076986 1406.9753988080297,209.90241142068407 1412,210 C 1417.0246011919703,210.09758857931593 1423.5092119817346,225.0851440249621 1429,240 C 1434.4907880182654,254.9148559750379 1438.9877532650312,269.75701247946756 1444,258 C 1449.0122467349688,246.24298752053244 1454.53977495814,207.88680605716763 1459,192 C 1463.46022504186,176.11319394283237 1466.8531469024078,182.69576329186182 1472,187 C 1477.1468530975922,191.30423670813818 1484.0476374322277,193.3301407753851 1490,188 C 1495.9523625677723,182.6698592246149 1500.9563033686811,169.98367360659782 1506,166 C 1511.0436966313189,162.01632639340218 1516.1271490930476,166.73516479822365 1522,192 C 1527.8728509069524,217.26483520177635 1534.535100259129,263.0756672005075 1537,271 C 1539.464899740871,278.9243327994925 1537.7324498704356,248.96216639974625 1536,219 C 1536,219 1536,730 1536,730 Z" stroke="none" stroke-width="0" fill="url(#linear-gradient)" class="transition-all duration-300 ease-in-out delay-150" style="transform-origin: center center;"></path><defs><linearGradient id="linear-gradient" x1="0" x2="0" y1="1" y2="0"><stop offset="0%" stop-color="#c2a129ff"></stop><stop offset="100%" stop-color="#757718ff"></stop></linearGradient></defs><path transform="scale(1, -1)" d="M 0,730 V 0,328 C 7.10562415669234,307.82911993299194 14.21124831338468,287.65823986598394 18,292 C 21.78875168661532,296.34176013401606 22.260630903153622,325.1961604690562 27,333 C 31.739369096846378,340.8038395309438 40.74622807400083,327.5571182577913 47,314 C 53.25377192599917,300.4428817422087 56.75445680084306,286.57536649977885 61,293 C 65.24554319915694,299.42463350022115 70.23594472262695,326.1414157430933 76,319 C 81.76405527737305,311.8585842569067 88.30176430864915,270.8589705278479 94,276 C 99.69823569135085,281.1410294721521 104.55699804277644,332.4227021455151 109,351 C 113.44300195722356,369.5772978544849 117.47024352024512,355.45022089009194 122,353 C 126.52975647975488,350.54977910990806 131.56202787624312,359.776414294117 137,347 C 142.43797212375688,334.223585705883 148.28164497478232,299.44412193343993 154,303 C 159.71835502521768,306.55587806656007 165.31139222462755,348.44709797212334 170,346 C 174.68860777537245,343.55290202787666 178.4727861267074,296.76748617806686 183,302 C 187.5272138732926,307.23251382193314 192.79746326854277,364.4829573156094 198,381 C 203.20253673145723,397.5170426843906 208.33736079912148,373.3006845594954 214,360 C 219.66263920087852,346.6993154405046 225.85309353497135,344.314304446409 231,336 C 236.14690646502865,327.685695553591 240.25026506099326,313.4420976548686 245,316 C 249.74973493900674,318.5579023451314 255.14584622105582,337.91730493411677 260,354 C 264.8541537789442,370.08269506588323 269.1663500547834,382.8886826086642 274,377 C 278.8336499452166,371.1113173913358 284.1887535598104,346.5279646312263 290,344 C 295.8112464401896,341.4720353687737 302.078635705975,360.99945886643025 308,346 C 313.921364294025,331.00054113356975 319.4967036162898,281.47419990305247 324,285 C 328.5032963837102,288.52580009694753 331.93454982886607,345.1037415213598 336,359 C 340.06545017113393,372.8962584786402 344.765097068246,344.1108340115082 350,324 C 355.234902931754,303.8891659884918 361.0050618981497,292.4529224326075 367,313 C 372.9949381018503,333.5470775673925 379.2146553391552,386.0774762580616 385,382 C 390.7853446608448,377.9225237419384 396.13631674522935,317.2371725351462 401,291 C 405.86368325477065,264.7628274648538 410.24007767992725,272.97383360135353 415,286 C 419.75992232007275,299.02616639864647 424.9033725350614,316.8674930594398 430,329 C 435.0966274649386,341.1325069405602 440.146432179827,347.55619416088706 446,362 C 451.853567820173,376.44380583911294 458.51089874563024,398.907730297012 463,381 C 467.48910125436976,363.092269702988 469.8099728376522,304.812884651065 475,301 C 480.1900271623478,297.187115348935 488.24920990376097,347.84073109872793 494,360 C 499.75079009623903,372.15926890127207 503.19318754730386,345.82419095402315 507,351 C 510.80681245269614,356.17580904597685 514.9780399070235,392.8625050851794 521,382 C 527.0219600929765,371.1374949148206 534.8946528246025,312.72578870525905 540,302 C 545.1053471753975,291.27421129474095 547.4433487945661,328.2343400937843 552,344 C 556.5566512054339,359.7656599062157 563.3319519971327,354.3368509196037 569,343 C 574.6680480028673,331.6631490803963 579.2288432169029,314.41825622780084 583,306 C 586.7711567830971,297.58174377219916 589.7526751352558,297.9901241691927 596,298 C 602.2473248647442,298.0098758308073 611.7604562420744,297.6212470954281 617,294 C 622.2395437579256,290.3787529045719 623.2054998964469,283.5248874490948 627,298 C 630.7945001035531,312.4751125509052 637.4175441721379,348.2792031081923 643,362 C 648.5824558278621,375.7207968918077 653.1243234150011,367.35830011813573 659,350 C 664.8756765849989,332.64169988186427 672.0851621678574,306.28759641926473 677,305 C 681.9148378321426,303.71240358073527 684.535027913569,327.4913142048051 689,334 C 693.464972086431,340.5086857951949 699.7747261778663,329.7471467615146 705,316 C 710.2252738221337,302.2528532384854 714.3660673749654,285.5200987491364 719,283 C 723.6339326250346,280.4799012508636 728.7610043222721,292.1724582419398 735,293 C 741.2389956777279,293.8275417580602 748.5899153359459,283.7900682831046 754,278 C 759.4100846640541,272.2099317168954 762.8793343339438,270.6672686256419 768,284 C 773.1206656660562,297.3327313743581 779.8927473282787,325.5408572143279 785,334 C 790.1072526717213,342.4591427856721 793.5496763529416,331.16930251704645 798,335 C 802.4503236470584,338.83069748295355 807.9085472599548,357.7819327174864 813,361 C 818.0914527400452,364.2180672825136 822.816134607239,351.70296661300773 829,341 C 835.183865392761,330.29703338699227 842.8269143110894,321.4062008304826 847,319 C 851.1730856889106,316.5937991695174 851.8762081484035,320.6722300650617 857,324 C 862.1237918515965,327.3277699349383 871.6682530952967,329.90487890927085 877,325 C 882.3317469047033,320.09512109072915 883.4507794704094,307.7082542978548 888,321 C 892.5492205295906,334.2917457021452 900.5286290230653,373.26210389931 907,370 C 913.4713709769347,366.73789610069 918.4347044373293,321.24333010490517 923,311 C 927.5652955626707,300.75666989509483 931.7325532276176,325.7645756810694 937,338 C 942.2674467723824,350.2354243189306 948.6350826522005,349.6983671708172 953,354 C 957.3649173477995,358.3016328291828 959.7271161635797,367.44195563566166 965,346 C 970.2728838364203,324.55804436433834 978.45645269348,272.53381028653615 984,281 C 989.54354730652,289.46618971346385 992.4470730625,358.4228032181935 997,363 C 1001.5529269375,367.5771967818065 1007.7552550565196,307.77497684068976 1013,288 C 1018.2447449434804,268.22502315931024 1022.5319067114217,288.47728941904745 1028,294 C 1033.4680932885783,299.52271058095255 1040.1171180977933,290.3158654831204 1045,303 C 1049.8828819022067,315.6841345168796 1052.9996208974053,350.25924864847104 1057,349 C 1061.0003791025947,347.74075135152896 1065.884398312585,310.6471399229957 1072,296 C 1078.115601687415,281.3528600770043 1085.462785852254,289.1521916595463 1091,313 C 1096.537214147746,336.8478083404537 1100.2644582783987,376.74409343881905 1105,367 C 1109.7355417216013,357.25590656118095 1115.4793810341507,297.8714345851775 1121,299 C 1126.5206189658493,300.1285654148225 1131.8180175849982,361.77016822047085 1136,361 C 1140.1819824150018,360.22983177952915 1143.2485486258568,297.0478925329389 1149,281 C 1154.7514513741432,264.9521074670611 1163.1877879115752,296.0382616477737 1169,313 C 1174.8122120884248,329.9617383522263 1178.000299727842,332.79906087596635 1183,318 C 1187.999700272158,303.20093912403365 1194.811013177056,270.7654948483608 1200,287 C 1205.188986822944,303.2345051516392 1208.7556475639335,368.1389597305906 1213,380 C 1217.2443524360665,391.8610402694094 1222.1663965672096,350.67866622927676 1228,329 C 1233.8336034327904,307.32133377072324 1240.5787661672289,305.14637535230224 1246,312 C 1251.4212338327711,318.85362464769776 1255.5185387638746,334.7358323615143 1260,329 C 1264.4814612361254,323.2641676384857 1269.347078777272,295.91029520164034 1274,308 C 1278.652921222728,320.08970479835966 1283.0931461270372,371.6229868319242 1288,377 C 1292.9068538729628,382.3770131680758 1298.2803367145789,341.5977574706627 1303,317 C 1307.7196632854211,292.4022425293373 1311.7855070146459,283.9859832854249 1318,284 C 1324.2144929853541,284.0140167145751 1332.5776352268379,292.45830938763777 1338,295 C 1343.4223647731621,297.54169061236223 1345.9039520780022,294.1807791640239 1350,288 C 1354.0960479219978,281.8192208359761 1359.8065564611536,272.8185739562667 1366,280 C 1372.1934435388464,287.1814260437333 1378.8698220773838,310.5449250109093 1384,327 C 1389.1301779226162,343.4550749890907 1392.7141552293115,353.00172600009586 1397,361 C 1401.2858447706885,368.99827399990414 1406.2735570053696,375.44817098870703 1411,351 C 1415.7264429946304,326.55182901129297 1420.191616749209,271.2055900450759 1425,274 C 1429.808383250791,276.7944099549241 1434.959975997794,337.7294688309894 1441,345 C 1447.040024002206,352.2705311690106 1453.9684792596154,305.87653463096655 1459,292 C 1464.0315207403846,278.12346536903345 1467.1661069637448,296.76439264514437 1472,305 C 1476.8338930362552,313.23560735485563 1483.367092885405,311.06589478845575 1489,329 C 1494.632907114595,346.93410521154425 1499.3655214946336,384.97202820103246 1505,380 C 1510.6344785053664,375.02797179896754 1517.17082113606,327.04599240741436 1523,304 C 1528.82917886394,280.95400759258564 1533.9511939611257,282.84400216931016 1536,291 C 1538.0488060388743,299.15599783068984 1537.0244030194372,313.5779989153449 1536,328 C 1536,328 1536,730 1536,730 Z" stroke="none" stroke-width="0" fill="url(#linear-gradient)" class="transition-all duration-300 ease-in-out delay-150" style="transform-origin: center center;"></path></svg>